<?xml version="1.0" encoding="UTF-8" standalone="no"?>
<!-- Created with Inkscape (http://www.inkscape.org/) -->

<svg
   xmlns:dc="http://purl.org/dc/elements/1.1/"
   xmlns:cc="http://creativecommons.org/ns#"
   xmlns:rdf="http://www.w3.org/1999/02/22-rdf-syntax-ns#"
   xmlns:svg="http://www.w3.org/2000/svg"
   xmlns="http://www.w3.org/2000/svg"
   xmlns:xlink="http://www.w3.org/1999/xlink"
   xmlns:sodipodi="http://sodipodi.sourceforge.net/DTD/sodipodi-0.dtd"
   xmlns:inkscape="http://www.inkscape.org/namespaces/inkscape"
   width="20"
   height="20"
   id="svg2"
   version="1.1"
   inkscape:version="0.48.4 r9939"
   inkscape:export-filename="C:\Users\MagWhiz\Documents\Diseños\Iconos\No.png"
   inkscape:export-xdpi="1152"
   inkscape:export-ydpi="1152"
   sodipodi:docname="No_Cross.svg">
  <defs
     id="defs4"><linearGradient
   id="linearGradient3779">
  <stop
     style="stop-color:#000000;stop-opacity:1;"
     offset="0"
     id="stop3781" />
  <stop
     style="stop-color:#8a8a8a;stop-opacity:1;"
     offset="1"
     id="stop3783" />
</linearGradient>
<linearGradient
   inkscape:collect="always"
   xlink:href="#linearGradient3779"
   id="linearGradient4535"
   gradientUnits="userSpaceOnUse"
   gradientTransform="matrix(0.82002764,0,0,0.82002764,23.614859,172.49838)"
   x1="9.2896023"
   y1="1047.2433"
   x2="9.2896023"
   y2="1036.1864" />
<inkscape:perspective
   id="perspective19"
   inkscape:persp3d-origin="133 : 33.333333 : 1"
   inkscape:vp_z="266 : 50 : 1"
   inkscape:vp_y="0 : 1000 : 0"
   inkscape:vp_x="0 : 50 : 1"
   sodipodi:type="inkscape:persp3d" />

		
		
	</defs>
  <sodipodi:namedview
     id="base"
     pagecolor="#ffffff"
     bordercolor="#666666"
     borderopacity="1.0"
     inkscape:pageopacity="0.0"
     inkscape:pageshadow="2"
     inkscape:zoom="16"
     inkscape:cx="9.4179648"
     inkscape:cy="12.171867"
     inkscape:document-units="px"
     inkscape:current-layer="layer1"
     showgrid="true"
     showguides="true"
     inkscape:guide-bbox="true"
     inkscape:window-width="1280"
     inkscape:window-height="961"
     inkscape:window-x="-8"
     inkscape:window-y="-8"
     inkscape:window-maximized="1">
    <inkscape:grid
       type="xygrid"
       id="grid3061" />
  </sodipodi:namedview>
  <metadata
     id="metadata7">
    <rdf:RDF>
      <cc:Work
         rdf:about="">
        <dc:format>image/svg+xml</dc:format>
        <dc:type
           rdf:resource="http://purl.org/dc/dcmitype/StillImage" />
        <dc:title></dc:title>
      </cc:Work>
    </rdf:RDF>
  </metadata>
  <g
     inkscape:label="Capa 1"
     inkscape:groupmode="layer"
     id="layer1"
     transform="translate(0,-1032.3622)">
    <circle
       transform="matrix(0.09676175,0,0,0.09676175,0.33811221,1032.6899)"
       id="circle4651"
       r="88.5"
       cy="100"
       cx="100"
       sodipodi:cx="100"
       sodipodi:cy="100"
       sodipodi:rx="88.5"
       sodipodi:ry="88.5"
       style="fill:#ffffff;fill-opacity:1;stroke:none"
       d="m 188.5,100 c 0,48.8772 -39.6228,88.5 -88.5,88.5 -48.8772,0 -88.5,-39.6228 -88.5,-88.5 0,-48.8772 39.6228,-88.5 88.5,-88.5 48.8772,0 88.5,39.6228 88.5,88.5 z" />
    <path
       style="font-size:medium;font-style:normal;font-variant:normal;font-weight:normal;font-stretch:normal;text-indent:0;text-align:start;text-decoration:none;line-height:normal;letter-spacing:normal;word-spacing:normal;text-transform:none;direction:ltr;block-progression:tb;writing-mode:lr-tb;text-anchor:start;baseline-shift:baseline;color:#000000;fill:#3b5998;fill-opacity:1;fill-rule:nonzero;stroke:none;stroke-width:0.61266684999999999;marker:none;visibility:visible;display:inline;overflow:visible;enable-background:accumulate;font-family:Sans;-inkscape-font-specification:Sans"
       d="M 10.03125 0.3125 C 4.7004268 0.3125 0.3125 4.63805 0.3125 9.96875 C 0.3125 15.29965 4.7004268 19.6875 10.03125 19.6875 C 15.362074 19.6875 19.6875 15.29965 19.6875 9.96875 C 19.6875 4.63805 15.362074 0.3125 10.03125 0.3125 z M 10.03125 2.5625 C 14.159313 2.5625 17.46875 5.84075 17.46875 9.96875 C 17.46875 14.09695 14.159313 17.46875 10.03125 17.46875 C 9.6547038 17.46875 9.2990058 17.429124 8.9375 17.375 L 8.9375 11.21875 L 10.46875 11.21875 L 10.6875 9.3125 L 8.9375 9.3125 L 8.9375 8.34375 C 8.9375 7.84415 9.00229 7.5625 9.71875 7.5625 L 10.65625 7.5625 L 10.65625 5.65625 L 9.125 5.65625 C 7.28485 5.65625 6.65625 6.59405 6.65625 8.15625 L 6.65625 9.3125 L 5.5 9.3125 L 5.5 11.21875 L 6.65625 11.21875 L 6.65625 16.65625 C 4.2271954 15.415208 2.5625 12.881287 2.5625 9.96875 C 2.5625 5.84075 5.9031878 2.5625 10.03125 2.5625 z "
       transform="translate(0,1032.3622)"
       id="rect4669" />
  </g>
</svg>
